{
	"asset":{
		"generator":"Khronos glTF Blender I/O v4.1.63",
		"version":"2.0"
	},
	"scene":0,
	"scenes":[
		{
			"name":"Scene",
			"nodes":[
				0,
				1,
				11,
				14
			]
		}
	],
	"nodes":[
		{
			"name":"Empty",
			"rotation":[
				0.5,
				0.5,
				-0.5,
				0.5
			],
			"translation":[
				-5.499439716339111,
				2.490238904953003,
				0.005622940603643656
			]
		},
		{
			"name":"Empty.001",
			"rotation":[
				0,
				-0.7071066498756409,
				0.70710688829422,
				3.090861255827804e-08
			],
			"translation":[
				0,
				2.4927947521209717,
				4.812146186828613
			]
		},
		{
			"name":"r.leg",
			"rotation":[
				0.08602134138345718,
				0.0022126161493360996,
				0.9947448968887329,
				0.0554799921810627
			],
			"scale":[
				1,
				1.000000238418579,
				1
			],
			"translation":[
				0.05729149281978607,
				1.0006688833236694,
				0.007124781608581543
			]
		},
		{
			"name":"l.leg",
			"rotation":[
				0.002465801313519478,
				1.3999073011916607e-08,
				0.998431384563446,
				0.055934105068445206
			],
			"scale":[
				1,
				0.9999998211860657,
				0.9999998807907104
			],
			"translation":[
				0.05280520021915436,
				1.0230576992034912,
				-1.1213470697402954
			]
		},
		{
			"name":"r.arm",
			"rotation":[
				0.7880748510360718,
				-0.17146256566047668,
				-0.4843796491622925,
				0.33899128437042236
			],
			"scale":[
				1,
				0.9999999403953552,
				0.9999999403953552
			],
			"translation":[
				0.12730057537555695,
				2.244112968444824,
				0.6010395288467407
			]
		},
		{
			"name":"l.arm",
			"rotation":[
				-0.9400652647018433,
				0.006094752810895443,
				0.0021196259185671806,
				0.3409336507320404
			],
			"scale":[
				1,
				0.9999999403953552,
				1
			],
			"translation":[
				0.1584344059228897,
				2.2675063610076904,
				-1.7242579460144043
			]
		},
		{
			"name":"r.ear",
			"rotation":[
				0.3092419505119324,
				0.061838772147893906,
				0.06634707748889923,
				0.9466485381126404
			],
			"scale":[
				0.9999999403953552,
				1,
				0.9999998807907104
			],
			"translation":[
				-0.6424866914749146,
				4.240137577056885,
				0.1824510097503662
			]
		},
		{
			"name":"l.ear",
			"rotation":[
				-0.26789918541908264,
				0.7617226839065552,
				-0.19371552765369415,
				0.5572099089622498
			],
			"scale":[
				1.0000001192092896,
				1.000000238418579,
				1.0000001192092896
			],
			"translation":[
				-0.5852100849151611,
				4.271838188171387,
				-1.3549772500991821
			]
		},
		{
			"mesh":0,
			"name":"Sphere.001",
			"skin":0
		},
		{
			"mesh":1,
			"name":"Sphere.002",
			"skin":0
		},
		{
			"mesh":2,
			"name":"Sphere.003",
			"skin":0
		},
		{
			"children":[
				8,
				9,
				10,
				2,
				3,
				4,
				5,
				6,
				7
			],
			"name":"Armature",
			"translation":[
				0.011799931526184082,
				0.14647483825683594,
				0.5618225336074829
			]
		},
		{
			"name":"Bone",
			"rotation":[
				-2.980232594040899e-08,
				1.1920927533992653e-07,
				0,
				1
			],
			"scale":[
				1,
				0.9999999403953552,
				0.9999999403953552
			]
		},
		{
			"mesh":3,
			"name":"B\u00e9zierCurve",
			"skin":1
		},
		{
			"children":[
				13,
				12
			],
			"name":"Armature.001",
			"translation":[
				-0.0372450053691864,
				0.8047049641609192,
				0.010603360831737518
			]
		}
	],
	"animations":[
		{
			"channels":[
				{
					"sampler":0,
					"target":{
						"node":2,
						"path":"translation"
					}
				},
				{
					"sampler":1,
					"target":{
						"node":2,
						"path":"rotation"
					}
				},
				{
					"sampler":2,
					"target":{
						"node":2,
						"path":"scale"
					}
				},
				{
					"sampler":3,
					"target":{
						"node":3,
						"path":"translation"
					}
				},
				{
					"sampler":4,
					"target":{
						"node":3,
						"path":"rotation"
					}
				},
				{
					"sampler":5,
					"target":{
						"node":3,
						"path":"scale"
					}
				},
				{
					"sampler":6,
					"target":{
						"node":4,
						"path":"translation"
					}
				},
				{
					"sampler":7,
					"target":{
						"node":4,
						"path":"rotation"
					}
				},
				{
					"sampler":8,
					"target":{
						"node":4,
						"path":"scale"
					}
				},
				{
					"sampler":9,
					"target":{
						"node":5,
						"path":"translation"
					}
				},
				{
					"sampler":10,
					"target":{
						"node":5,
						"path":"rotation"
					}
				},
				{
					"sampler":11,
					"target":{
						"node":5,
						"path":"scale"
					}
				},
				{
					"sampler":12,
					"target":{
						"node":6,
						"path":"translation"
					}
				},
				{
					"sampler":13,
					"target":{
						"node":6,
						"path":"rotation"
					}
				},
				{
					"sampler":14,
					"target":{
						"node":6,
						"path":"scale"
					}
				},
				{
					"sampler":15,
					"target":{
						"node":7,
						"path":"translation"
					}
				},
				{
					"sampler":16,
					"target":{
						"node":7,
						"path":"rotation"
					}
				},
				{
					"sampler":17,
					"target":{
						"node":7,
						"path":"scale"
					}
				}
			],
			"name":"ArmatureAction",
			"samplers":[
				{
					"input":32,
					"interpolation":"STEP",
					"output":33
				},
				{
					"input":34,
					"interpolation":"LINEAR",
					"output":35
				},
				{
					"input":32,
					"interpolation":"STEP",
					"output":36
				},
				{
					"input":32,
					"interpolation":"STEP",
					"output":37
				},
				{
					"input":34,
					"interpolation":"LINEAR",
					"output":38
				},
				{
					"input":32,
					"interpolation":"STEP",
					"output":39
				},
				{
					"input":32,
					"interpolation":"STEP",
					"output":40
				},
				{
					"input":34,
					"interpolation":"LINEAR",
					"output":41
				},
				{
					"input":32,
					"interpolation":"STEP",
					"output":42
				},
				{
					"input":32,
					"interpolation":"STEP",
					"output":43
				},
				{
					"input":34,
					"interpolation":"LINEAR",
					"output":44
				},
				{
					"input":32,
					"interpolation":"STEP",
					"output":45
				},
				{
					"input":34,
					"interpolation":"LINEAR",
					"output":46
				},
				{
					"input":34,
					"interpolation":"LINEAR",
					"output":47
				},
				{
					"input":32,
					"interpolation":"STEP",
					"output":48
				},
				{
					"input":34,
					"interpolation":"LINEAR",
					"output":49
				},
				{
					"input":34,
					"interpolation":"LINEAR",
					"output":50
				},
				{
					"input":32,
					"interpolation":"STEP",
					"output":51
				}
			]
		},
		{
			"channels":[
				{
					"sampler":0,
					"target":{
						"node":12,
						"path":"translation"
					}
				},
				{
					"sampler":1,
					"target":{
						"node":12,
						"path":"rotation"
					}
				},
				{
					"sampler":2,
					"target":{
						"node":12,
						"path":"scale"
					}
				}
			],
			"name":"Armature.001Action.001",
			"samplers":[
				{
					"input":32,
					"interpolation":"STEP",
					"output":52
				},
				{
					"input":34,
					"interpolation":"LINEAR",
					"output":53
				},
				{
					"input":32,
					"interpolation":"STEP",
					"output":54
				}
			]
		},
		{
			"channels":[
				{
					"sampler":0,
					"target":{
						"node":13,
						"path":"rotation"
					}
				}
			],
			"name":"B\u00e9zierCurveAction",
			"samplers":[
				{
					"input":55,
					"interpolation":"LINEAR",
					"output":56
				}
			]
		}
	],
	"materials":[
		{
			"doubleSided":true,
			"name":"Material.001",
			"pbrMetallicRoughness":{
				"baseColorTexture":{
					"index":0
				},
				"metallicFactor":0,
				"roughnessFactor":0.5
			}
		},
		{
			"doubleSided":true,
			"name":"Material",
			"pbrMetallicRoughness":{
				"baseColorFactor":[
					0.0178285650908947,
					0.017160775139927864,
					0.016124548390507698,
					1
				],
				"metallicFactor":0,
				"roughnessFactor":0.5
			}
		}
	],
	"meshes":[
		{
			"name":"Sphere.005",
			"primitives":[
				{
					"attributes":{
						"POSITION":0,
						"NORMAL":1,
						"TEXCOORD_0":2,
						"JOINTS_0":3,
						"WEIGHTS_0":4
					},
					"indices":5,
					"material":0
				}
			]
		},
		{
			"name":"Sphere.006",
			"primitives":[
				{
					"attributes":{
						"POSITION":7,
						"NORMAL":8,
						"TEXCOORD_0":9,
						"JOINTS_0":10,
						"WEIGHTS_0":11
					},
					"indices":12,
					"material":0
				}
			]
		},
		{
			"name":"Sphere.010",
			"primitives":[
				{
					"attributes":{
						"POSITION":13,
						"NORMAL":14,
						"TEXCOORD_0":15,
						"JOINTS_0":16,
						"WEIGHTS_0":17
					},
					"indices":18,
					"material":0
				}
			]
		},
		{
			"name":"B\u00e9zierCurve.001",
			"primitives":[
				{
					"attributes":{
						"POSITION":19,
						"NORMAL":20,
						"TEXCOORD_0":21,
						"JOINTS_0":22,
						"WEIGHTS_0":23
					},
					"indices":24,
					"material":1
				},
				{
					"attributes":{
						"POSITION":25,
						"NORMAL":26,
						"TEXCOORD_0":27,
						"JOINTS_0":28,
						"WEIGHTS_0":29
					},
					"indices":30,
					"material":0
				}
			]
		}
	],
	"textures":[
		{
			"sampler":0,
			"source":0
		}
	],
	"images":[
		{
			"mimeType":"image/png",
			"name":"1024 palette",
			"uri":"1024%20palette.png"
		}
	],
	"skins":[
		{
			"inverseBindMatrices":6,
			"joints":[
				2,
				3,
				4,
				5,
				6,
				7
			],
			"name":"Armature"
		},
		{
			"inverseBindMatrices":31,
			"joints":[
				12
			],
			"name":"Armature.001"
		}
	],
	"accessors":[
		{
			"bufferView":0,
			"componentType":5126,
			"count":4224,
			"max":[
				0.330847829580307,
				1.2948243618011475,
				0.8824971318244934
			],
			"min":[
				-0.3308476209640503,
				0.05230627954006195,
				-0.875210702419281
			],
			"type":"VEC3"
		},
		{
			"bufferView":1,
			"componentType":5126,
			"count":4224,
			"type":"VEC3"
		},
		{
			"bufferView":2,
			"componentType":5126,
			"count":4224,
			"type":"VEC2"
		},
		{
			"bufferView":3,
			"componentType":5121,
			"count":4224,
			"type":"VEC4"
		},
		{
			"bufferView":4,
			"componentType":5126,
			"count":4224,
			"type":"VEC4"
		},
		{
			"bufferView":5,
			"componentType":5123,
			"count":6144,
			"type":"SCALAR"
		},
		{
			"bufferView":6,
			"componentType":5126,
			"count":6,
			"type":"MAT4"
		},
		{
			"bufferView":7,
			"componentType":5126,
			"count":5778,
			"max":[
				0.4527423083782196,
				2.6058971881866455,
				1.9428752660751343
			],
			"min":[
				-0.12282940000295639,
				1.542153239250183,
				-1.9355887174606323
			],
			"type":"VEC3"
		},
		{
			"bufferView":8,
			"componentType":5126,
			"count":5778,
			"type":"VEC3"
		},
		{
			"bufferView":9,
			"componentType":5126,
			"count":5778,
			"type":"VEC2"
		},
		{
			"bufferView":10,
			"componentType":5121,
			"count":5778,
			"type":"VEC4"
		},
		{
			"bufferView":11,
			"componentType":5126,
			"count":5778,
			"type":"VEC4"
		},
		{
			"bufferView":12,
			"componentType":5123,
			"count":8832,
			"type":"SCALAR"
		},
		{
			"bufferView":13,
			"componentType":5126,
			"count":5944,
			"max":[
				-0.4440057873725891,
				4.85053825378418,
				1.140978455543518
			],
			"min":[
				-0.9212550520896912,
				4.233745098114014,
				-1.1336919069290161
			],
			"type":"VEC3"
		},
		{
			"bufferView":14,
			"componentType":5126,
			"count":5944,
			"type":"VEC3"
		},
		{
			"bufferView":15,
			"componentType":5126,
			"count":5944,
			"type":"VEC2"
		},
		{
			"bufferView":16,
			"componentType":5121,
			"count":5944,
			"type":"VEC4"
		},
		{
			"bufferView":17,
			"componentType":5126,
			"count":5944,
			"type":"VEC4"
		},
		{
			"bufferView":18,
			"componentType":5123,
			"count":9696,
			"type":"SCALAR"
		},
		{
			"bufferView":19,
			"componentType":5126,
			"count":650,
			"max":[
				1.9033232927322388,
				4.301647186279297,
				1.2875701189041138
			],
			"min":[
				-0.059908103197813034,
				3.392059803009033,
				-1.2608301639556885
			],
			"type":"VEC3"
		},
		{
			"bufferView":20,
			"componentType":5126,
			"count":650,
			"type":"VEC3"
		},
		{
			"bufferView":21,
			"componentType":5126,
			"count":650,
			"type":"VEC2"
		},
		{
			"bufferView":22,
			"componentType":5121,
			"count":650,
			"type":"VEC4"
		},
		{
			"bufferView":23,
			"componentType":5126,
			"count":650,
			"type":"VEC4"
		},
		{
			"bufferView":24,
			"componentType":5123,
			"count":3456,
			"type":"SCALAR"
		},
		{
			"bufferView":25,
			"componentType":5126,
			"count":25760,
			"max":[
				1.894239068031311,
				4.64609432220459,
				1.3899753093719482
			],
			"min":[
				-1.4147533178329468,
				0.5132205486297607,
				-1.3671936988830566
			],
			"type":"VEC3"
		},
		{
			"bufferView":26,
			"componentType":5126,
			"count":25760,
			"type":"VEC3"
		},
		{
			"bufferView":27,
			"componentType":5126,
			"count":25760,
			"type":"VEC2"
		},
		{
			"bufferView":28,
			"componentType":5121,
			"count":25760,
			"type":"VEC4"
		},
		{
			"bufferView":29,
			"componentType":5126,
			"count":25760,
			"type":"VEC4"
		},
		{
			"bufferView":30,
			"componentType":5123,
			"count":41016,
			"type":"SCALAR"
		},
		{
			"bufferView":31,
			"componentType":5126,
			"count":1,
			"type":"MAT4"
		},
		{
			"bufferView":32,
			"componentType":5126,
			"count":2,
			"max":[
				0.8333333333333334
			],
			"min":[
				0
			],
			"type":"SCALAR"
		},
		{
			"bufferView":33,
			"componentType":5126,
			"count":2,
			"type":"VEC3"
		},
		{
			"bufferView":34,
			"componentType":5126,
			"count":21,
			"max":[
				0.8333333333333334
			],
			"min":[
				0
			],
			"type":"SCALAR"
		},
		{
			"bufferView":35,
			"componentType":5126,
			"count":21,
			"type":"VEC4"
		},
		{
			"bufferView":36,
			"componentType":5126,
			"count":2,
			"type":"VEC3"
		},
		{
			"bufferView":37,
			"componentType":5126,
			"count":2,
			"type":"VEC3"
		},
		{
			"bufferView":38,
			"componentType":5126,
			"count":21,
			"type":"VEC4"
		},
		{
			"bufferView":39,
			"componentType":5126,
			"count":2,
			"type":"VEC3"
		},
		{
			"bufferView":40,
			"componentType":5126,
			"count":2,
			"type":"VEC3"
		},
		{
			"bufferView":41,
			"componentType":5126,
			"count":21,
			"type":"VEC4"
		},
		{
			"bufferView":42,
			"componentType":5126,
			"count":2,
			"type":"VEC3"
		},
		{
			"bufferView":43,
			"componentType":5126,
			"count":2,
			"type":"VEC3"
		},
		{
			"bufferView":44,
			"componentType":5126,
			"count":21,
			"type":"VEC4"
		},
		{
			"bufferView":45,
			"componentType":5126,
			"count":2,
			"type":"VEC3"
		},
		{
			"bufferView":46,
			"componentType":5126,
			"count":21,
			"type":"VEC3"
		},
		{
			"bufferView":47,
			"componentType":5126,
			"count":21,
			"type":"VEC4"
		},
		{
			"bufferView":48,
			"componentType":5126,
			"count":2,
			"type":"VEC3"
		},
		{
			"bufferView":49,
			"componentType":5126,
			"count":21,
			"type":"VEC3"
		},
		{
			"bufferView":50,
			"componentType":5126,
			"count":21,
			"type":"VEC4"
		},
		{
			"bufferView":51,
			"componentType":5126,
			"count":2,
			"type":"VEC3"
		},
		{
			"bufferView":52,
			"componentType":5126,
			"count":2,
			"type":"VEC3"
		},
		{
			"bufferView":53,
			"componentType":5126,
			"count":21,
			"type":"VEC4"
		},
		{
			"bufferView":54,
			"componentType":5126,
			"count":2,
			"type":"VEC3"
		},
		{
			"bufferView":55,
			"componentType":5126,
			"count":1,
			"max":[
				0.4166666666666667
			],
			"min":[
				0.4166666666666667
			],
			"type":"SCALAR"
		},
		{
			"bufferView":56,
			"componentType":5126,
			"count":1,
			"type":"VEC4"
		}
	],
	"bufferViews":[
		{
			"buffer":0,
			"byteLength":50688,
			"byteOffset":0,
			"target":34962
		},
		{
			"buffer":0,
			"byteLength":50688,
			"byteOffset":50688,
			"target":34962
		},
		{
			"buffer":0,
			"byteLength":33792,
			"byteOffset":101376,
			"target":34962
		},
		{
			"buffer":0,
			"byteLength":16896,
			"byteOffset":135168,
			"target":34962
		},
		{
			"buffer":0,
			"byteLength":67584,
			"byteOffset":152064,
			"target":34962
		},
		{
			"buffer":0,
			"byteLength":12288,
			"byteOffset":219648,
			"target":34963
		},
		{
			"buffer":0,
			"byteLength":384,
			"byteOffset":231936
		},
		{
			"buffer":0,
			"byteLength":69336,
			"byteOffset":232320,
			"target":34962
		},
		{
			"buffer":0,
			"byteLength":69336,
			"byteOffset":301656,
			"target":34962
		},
		{
			"buffer":0,
			"byteLength":46224,
			"byteOffset":370992,
			"target":34962
		},
		{
			"buffer":0,
			"byteLength":23112,
			"byteOffset":417216,
			"target":34962
		},
		{
			"buffer":0,
			"byteLength":92448,
			"byteOffset":440328,
			"target":34962
		},
		{
			"buffer":0,
			"byteLength":17664,
			"byteOffset":532776,
			"target":34963
		},
		{
			"buffer":0,
			"byteLength":71328,
			"byteOffset":550440,
			"target":34962
		},
		{
			"buffer":0,
			"byteLength":71328,
			"byteOffset":621768,
			"target":34962
		},
		{
			"buffer":0,
			"byteLength":47552,
			"byteOffset":693096,
			"target":34962
		},
		{
			"buffer":0,
			"byteLength":23776,
			"byteOffset":740648,
			"target":34962
		},
		{
			"buffer":0,
			"byteLength":95104,
			"byteOffset":764424,
			"target":34962
		},
		{
			"buffer":0,
			"byteLength":19392,
			"byteOffset":859528,
			"target":34963
		},
		{
			"buffer":0,
			"byteLength":7800,
			"byteOffset":878920,
			"target":34962
		},
		{
			"buffer":0,
			"byteLength":7800,
			"byteOffset":886720,
			"target":34962
		},
		{
			"buffer":0,
			"byteLength":5200,
			"byteOffset":894520,
			"target":34962
		},
		{
			"buffer":0,
			"byteLength":2600,
			"byteOffset":899720,
			"target":34962
		},
		{
			"buffer":0,
			"byteLength":10400,
			"byteOffset":902320,
			"target":34962
		},
		{
			"buffer":0,
			"byteLength":6912,
			"byteOffset":912720,
			"target":34963
		},
		{
			"buffer":0,
			"byteLength":309120,
			"byteOffset":919632,
			"target":34962
		},
		{
			"buffer":0,
			"byteLength":309120,
			"byteOffset":1228752,
			"target":34962
		},
		{
			"buffer":0,
			"byteLength":206080,
			"byteOffset":1537872,
			"target":34962
		},
		{
			"buffer":0,
			"byteLength":103040,
			"byteOffset":1743952,
			"target":34962
		},
		{
			"buffer":0,
			"byteLength":412160,
			"byteOffset":1846992,
			"target":34962
		},
		{
			"buffer":0,
			"byteLength":82032,
			"byteOffset":2259152,
			"target":34963
		},
		{
			"buffer":0,
			"byteLength":64,
			"byteOffset":2341184
		},
		{
			"buffer":0,
			"byteLength":8,
			"byteOffset":2341248
		},
		{
			"buffer":0,
			"byteLength":24,
			"byteOffset":2341256
		},
		{
			"buffer":0,
			"byteLength":84,
			"byteOffset":2341280
		},
		{
			"buffer":0,
			"byteLength":336,
			"byteOffset":2341364
		},
		{
			"buffer":0,
			"byteLength":24,
			"byteOffset":2341700
		},
		{
			"buffer":0,
			"byteLength":24,
			"byteOffset":2341724
		},
		{
			"buffer":0,
			"byteLength":336,
			"byteOffset":2341748
		},
		{
			"buffer":0,
			"byteLength":24,
			"byteOffset":2342084
		},
		{
			"buffer":0,
			"byteLength":24,
			"byteOffset":2342108
		},
		{
			"buffer":0,
			"byteLength":336,
			"byteOffset":2342132
		},
		{
			"buffer":0,
			"byteLength":24,
			"byteOffset":2342468
		},
		{
			"buffer":0,
			"byteLength":24,
			"byteOffset":2342492
		},
		{
			"buffer":0,
			"byteLength":336,
			"byteOffset":2342516
		},
		{
			"buffer":0,
			"byteLength":24,
			"byteOffset":2342852
		},
		{
			"buffer":0,
			"byteLength":252,
			"byteOffset":2342876
		},
		{
			"buffer":0,
			"byteLength":336,
			"byteOffset":2343128
		},
		{
			"buffer":0,
			"byteLength":24,
			"byteOffset":2343464
		},
		{
			"buffer":0,
			"byteLength":252,
			"byteOffset":2343488
		},
		{
			"buffer":0,
			"byteLength":336,
			"byteOffset":2343740
		},
		{
			"buffer":0,
			"byteLength":24,
			"byteOffset":2344076
		},
		{
			"buffer":0,
			"byteLength":24,
			"byteOffset":2344100
		},
		{
			"buffer":0,
			"byteLength":336,
			"byteOffset":2344124
		},
		{
			"buffer":0,
			"byteLength":24,
			"byteOffset":2344460
		},
		{
			"buffer":0,
			"byteLength":4,
			"byteOffset":2344484
		},
		{
			"buffer":0,
			"byteLength":16,
			"byteOffset":2344488
		}
	],
	"samplers":[
		{
			"magFilter":9728,
			"minFilter":9984
		}
	],
	"buffers":[
		{
			"byteLength":2344504,
			"uri":"capybara.bin"
		}
	]
}
